<svg xmlns="http://www.w3.org/2000/svg" xmlns:xlink="http://www.w3.org/1999/xlink" viewBox="0,0,256,256" width="100px" height="100px" fill-rule="nonzero"><g transform="translate(-12.8,-12.8) scale(1.1,1.1)"><g fill="#000000" fill-rule="nonzero" stroke="none" stroke-width="1" stroke-linecap="butt" stroke-linejoin="miter" stroke-miterlimit="10" stroke-dasharray="" stroke-dashoffset="0" font-family="none" font-weight="none" font-size="none" text-anchor="none" style="mix-blend-mode: normal"><path d="M11.63636,244.36364v-232.72727h232.72727v232.72727z" id="bgRectangle"></path></g><g fill="#fcaf17" fill-rule="nonzero" stroke="none" stroke-width="1" stroke-linecap="butt" stroke-linejoin="miter" stroke-miterlimit="10" stroke-dasharray="" stroke-dashoffset="0" font-family="none" font-weight="none" font-size="none" text-anchor="none" style="mix-blend-mode: normal"><g transform="scale(5.12,5.12)"><path d="M12,3c-4.96,0 -9,4.04 -9,9v26c0,4.96 4.04,9 9,9h26c4.96,0 9,-4.04 9,-9v-26c0,-4.96 -4.04,-9 -9,-9zM15.7207,10h8.2793c3.66,0 6.23945,0.85945 5.93945,4.93945c-0.27,3.76 -2.69922,4.45117 -2.69922,4.45117c0,0 0.78977,1.44945 0.50977,4.18945c-0.29,2.89 0.03078,3.95992 0.30078,4.41992h-4.91992c0,0 -0.28063,-0.59023 -0.14062,-1.74023c0.43,-3.42 -0.06117,-5.25977 -2.45117,-5.25977h-2.86914l-1.53906,7h-4.27148zM19.28906,13.0293l-0.97852,4.94141h4.46875c1.35,0 2.79062,-0.45141 3.14063,-2.19141c0.36,-1.77 -0.88898,-2.75 -2.20898,-2.75zM32.33008,24l0.94922,5.9707h5.7207l-5.19922,3.84961l1.19922,6.17969l-4.83008,-3.75l-6.16992,3.75l2.90039,-6.39062l-3.90039,-3.60937h6z"></path></g></g></g></svg>